<svg width="22" height="19" viewBox="0 0 22 19" fill="none" xmlns="http://www.w3.org/2000/svg">
<path d="M22 4.75V16.9643C22 18.0882 21.0762 19 19.9375 19H2.0625C0.923828 19 0 18.0882 0 16.9643V4.75C0 3.62612 0.923828 2.71429 2.0625 2.71429H5.84375L6.37227 1.31897C6.67305 0.525893 7.44219 0 8.30156 0H13.6941C14.5535 0 15.3227 0.525893 15.6234 1.31897L16.1562 2.71429H19.9375C21.0762 2.71429 22 3.62612 22 4.75ZM16.1562 10.8571C16.1562 8.04955 13.8445 5.76786 11 5.76786C8.15547 5.76786 5.84375 8.04955 5.84375 10.8571C5.84375 13.6647 8.15547 15.9464 11 15.9464C13.8445 15.9464 16.1562 13.6647 16.1562 10.8571ZM14.7812 10.8571C14.7812 12.9141 13.084 14.5893 11 14.5893C8.91602 14.5893 7.21875 12.9141 7.21875 10.8571C7.21875 8.80022 8.91602 7.125 11 7.125C13.084 7.125 14.7812 8.80022 14.7812 10.8571Z" fill="#42E87F"/>
</svg>
