<svg width="22" height="19" viewBox="0 0 22 19" fill="none" xmlns="http://www.w3.org/2000/svg">
<path d="M21.3125 15.625H2.75V0.78125C2.75 0.349609 2.44234 0 2.0625 0H0.6875C0.307656 0 0 0.349609 0 0.78125V17.1875C0 18.0503 0.615742 18.75 1.375 18.75H21.3125C21.6923 18.75 22 18.4004 22 17.9688V16.4062C22 15.9746 21.6923 15.625 21.3125 15.625ZM19.9375 1.5625H14.8646C13.9459 1.5625 13.4857 2.82471 14.1354 3.56299L15.5276 5.14502L12.375 8.72803L9.22238 5.14551C8.68527 4.53516 7.81473 4.53516 7.27805 5.14551L4.32652 8.49951C4.05797 8.80469 4.05797 9.29932 4.32652 9.60449L5.29848 10.709C5.56703 11.0142 6.00231 11.0142 6.27086 10.709L8.25 8.45947L11.4026 12.042C11.9397 12.6523 12.8103 12.6523 13.347 12.042L17.472 7.35449L18.8641 8.93652C19.5138 9.6748 20.6246 9.15186 20.6246 8.10791V2.34375C20.625 1.91211 20.3173 1.5625 19.9375 1.5625Z" fill="#757575"/>
</svg>
