<svg width="25" height="23" viewBox="0 0 25 23" fill="none" xmlns="http://www.w3.org/2000/svg">
<path d="M25 14.2604V21.6201C25 21.986 24.842 22.337 24.5607 22.5958C24.2794 22.8546 23.8978 23 23.5 23H1.5C1.10218 23 0.720644 22.8546 0.43934 22.5958C0.158035 22.337 0 21.986 0 21.6201V14.2604C0 13.8944 0.158035 13.5434 0.43934 13.2847C0.720644 13.0259 1.10218 12.8805 1.5 12.8805C1.89782 12.8805 2.27936 13.0259 2.56066 13.2847C2.84196 13.5434 3 13.8944 3 14.2604V20.2401H22V14.2604C22 13.8944 22.158 13.5434 22.4393 13.2847C22.7206 13.0259 23.1022 12.8805 23.5 12.8805C23.8978 12.8805 24.2794 13.0259 24.5607 13.2847C24.842 13.5434 25 13.8944 25 14.2604ZM8.56125 6.95711L11 4.71587V14.2604C11 14.6264 11.158 14.9774 11.4393 15.2362C11.7206 15.495 12.1022 15.6403 12.5 15.6403C12.8978 15.6403 13.2794 15.495 13.5607 15.2362C13.842 14.9774 14 14.6264 14 14.2604V4.71587L16.4387 6.96056C16.5783 7.08892 16.7439 7.19074 16.9262 7.26021C17.1085 7.32968 17.3039 7.36543 17.5012 7.36543C17.6986 7.36543 17.894 7.32968 18.0763 7.26021C18.2586 7.19074 18.4242 7.08892 18.5637 6.96056C18.7033 6.8322 18.814 6.67981 18.8895 6.5121C18.965 6.34439 19.0039 6.16463 19.0039 5.9831C19.0039 5.80157 18.965 5.62182 18.8895 5.45411C18.814 5.2864 18.7033 5.13401 18.5637 5.00565L13.5637 0.405869C13.4244 0.277222 13.2588 0.175148 13.0765 0.1055C12.8941 0.0358519 12.6987 0 12.5012 0C12.3038 0 12.1083 0.0358519 11.926 0.1055C11.7437 0.175148 11.5781 0.277222 11.4388 0.405869L6.43875 5.00565C6.29922 5.13401 6.18854 5.2864 6.11303 5.45411C6.03751 5.62182 5.99865 5.80157 5.99865 5.9831C5.99865 6.34972 6.15696 6.70132 6.43875 6.96056C6.72054 7.2198 7.10274 7.36543 7.50125 7.36543C7.89977 7.36543 8.28196 7.2198 8.56375 6.96056L8.56125 6.95711Z" fill="#212121"/>
</svg>
